# Blender 4.4.0
# www.blender.org
mtllib CL3D_Computer.mtl
o Computer
v -0.166016 0.000000 0.166016
v -0.092853 0.185705 0.092853
v -0.166016 0.000000 -0.166016
v -0.092853 0.237216 -0.092853
v 0.166017 0.000000 0.166016
v 0.092853 0.185705 0.092853
v 0.166017 0.000000 -0.166016
v 0.092853 0.237216 -0.092853
v 0.000001 0.000000 -0.166016
v 0.000000 0.237216 -0.092853
v 0.000001 0.000000 0.166016
v 0.000000 0.185705 0.092853
v -0.166016 0.000000 -0.000000
v -0.092853 0.185705 0.000000
v 0.166017 0.000000 -0.000000
v 0.092853 0.185705 0.000000
v 0.000000 0.185705 0.000000
v 0.000000 0.000000 0.000000
v -0.092853 0.092853 0.092853
v -0.092853 0.092853 -0.092853
v 0.092853 0.092853 -0.092853
v 0.092853 0.092853 0.092853
v 0.000000 0.092853 0.092853
v 0.000000 0.092853 -0.092853
v 0.092853 0.092853 0.000000
v -0.092853 0.092853 0.000000
v -0.092853 0.046426 -0.092853
v 0.092853 0.046426 -0.092853
v 0.092853 0.046426 0.092853
v 0.000000 0.046426 0.092853
v 0.000000 0.046426 -0.092853
v 0.092853 0.046426 0.000000
v -0.092853 0.046426 0.000000
v -0.092853 0.046426 0.092853
v -0.371397 0.185705 0.235056
v -0.371397 0.928500 0.235056
v -0.255148 0.185705 0.000000
v -0.255148 0.760768 0.000000
v 0.371397 0.185705 0.235056
v 0.371397 0.928500 0.235056
v 0.255147 0.185705 0.000000
v 0.255147 0.760768 0.000000
v -0.000000 0.185705 0.000000
v -0.000000 0.760768 0.000000
v 0.000000 0.185705 0.235056
v 0.000000 0.928500 0.235056
v -0.325843 0.185705 0.029526
v -0.325843 0.882946 0.029526
v 0.325843 0.185705 0.029526
v 0.325843 0.882946 0.029526
v 0.000000 0.882946 0.029526
v 0.000000 0.185705 0.029526
v -0.371397 0.557103 0.235056
v -0.255148 0.446107 0.000000
v 0.255147 0.446107 0.000000
v 0.371397 0.557103 0.235056
v -0.000000 0.446107 -0.208666
v 0.325843 0.557103 0.029526
v -0.325843 0.557103 0.029526
v 0.191360 0.446107 -0.208666
v 0.309458 0.557103 0.235056
v 0.000000 0.247644 0.235056
v -0.000000 0.264913 -0.208666
v 0.191360 0.264913 -0.208666
v 0.309458 0.247644 0.235056
v -0.309458 0.557103 0.235056
v -0.191361 0.446107 -0.208666
v -0.309458 0.247644 0.235056
v -0.191361 0.264913 -0.208666
v 0.000000 0.866561 0.235056
v -0.000000 0.696981 -0.208666
v 0.309458 0.866561 0.235056
v 0.191360 0.696981 -0.208666
v -0.191361 0.696981 -0.208666
v -0.309458 0.866561 0.235056
v 0.000000 0.742801 0.266352
v 0.000000 0.557103 0.289549
v 0.185699 0.557103 0.266352
v 0.278548 0.557103 0.220558
v 0.185699 0.742801 0.247360
v -0.185699 0.557103 0.266352
v -0.185699 0.742801 0.247360
v 0.000000 0.835650 0.220558
v 0.185699 0.835650 0.220558
v -0.185699 0.835650 0.220558
v 0.278548 0.742801 0.220558
v 0.000000 0.371404 0.266352
v 0.185699 0.371404 0.247360
v -0.185699 0.371404 0.247360
v 0.278548 0.371404 0.220558
v 0.278548 0.835650 0.220558
v 0.000000 0.278555 0.220558
v 0.185699 0.278555 0.220558
v -0.185699 0.278555 0.220558
v 0.278548 0.278555 0.220558
v -0.278548 0.557103 0.220558
v -0.278548 0.742801 0.220558
v -0.278548 0.371404 0.220558
v -0.278548 0.278555 0.220558
v -0.278548 0.835650 0.220558
vn -1.0000 -0.0000 -0.0000
vn -0.0000 -0.0000 -1.0000
vn 1.0000 -0.0000 -0.0000
vn -0.0000 -0.0000 1.0000
vn -0.0000 -1.0000 -0.0000
vn -0.0000 1.0000 -0.0000
vn -0.0000 0.8745 0.4851
vn -0.5358 0.8444 -0.0000
vn -0.0000 0.8444 -0.5358
vn 0.5358 0.8444 -0.0000
vn -0.0000 0.8444 0.5358
vn -0.0000 -0.9349 -0.3549
vn 0.9563 -0.0000 -0.2923
vn -0.3854 -0.0000 -0.9228
vn -0.0000 0.9763 -0.2164
vn 0.9763 -0.0000 -0.2164
vn 0.3854 -0.0000 -0.9228
vn 0.4247 -0.0000 0.9054
vn -0.0000 -0.4247 0.9054
vn -0.0000 0.4247 0.9054
vn -0.4247 -0.0000 0.9054
vn -0.9763 -0.0000 -0.2164
vn -0.0000 0.2349 -0.9720
vn -0.9563 -0.0000 -0.2923
vn 0.1695 -0.1695 0.9708
vn 0.2385 -0.0000 0.9711
vn -0.0000 -0.2385 0.9711
vn 0.2545 -0.0952 0.9624
vn 0.3641 -0.0000 0.9314
vn -0.2385 -0.0000 0.9711
vn -0.1695 -0.1695 0.9708
vn -0.0000 0.2385 0.9711
vn -0.1695 0.1695 0.9708
vn 0.2545 0.0952 0.9624
vn 0.1695 0.1695 0.9708
vn -0.0000 -0.3641 0.9314
vn -0.0952 -0.2545 0.9624
vn 0.1414 -0.1414 0.9798
vn 0.0952 -0.2545 0.9624
vn -0.2545 -0.0952 0.9624
vn -0.1414 -0.1414 0.9798
vn -0.2545 0.0952 0.9624
vn -0.3641 -0.0000 0.9314
vn -0.0952 0.2545 0.9624
vn -0.1414 0.1414 0.9798
vn -0.0000 0.3641 0.9314
vn 0.1414 0.1414 0.9798
vn 0.0952 0.2545 0.9624
vn -0.0000 0.9563 -0.2923
vt 0.456416 0.181587
vt 0.539200 0.201183
vt 0.547469 0.294193
vt 0.436183 0.256049
vt 0.624784 0.411700
vt 0.624436 0.292548
vt 0.700584 0.293848
vt 0.700526 0.411395
vt 0.790420 0.179969
vt 0.709169 0.199902
vt 0.701527 0.119040
vt 0.774149 0.106667
vt 0.628245 0.899876
vt 0.628808 0.975623
vt 0.553061 0.976185
vt 0.552498 0.900439
vt 0.626447 0.655874
vt 0.761867 0.654891
vt 0.762869 0.790314
vt 0.627441 0.791315
vt 0.624508 0.201117
vt 0.550137 0.118356
vt 0.624824 0.122201
vt 0.490992 0.656886
vt 0.492005 0.792320
vt 0.703991 0.899314
vt 0.704554 0.975060
vt 0.548796 0.412326
vt 0.489965 0.521429
vt 0.625476 0.520409
vt 0.760890 0.519478
vt 0.811150 0.252746
vt 0.473100 0.103865
vt 0.435007 0.095715
vt 0.418142 0.172247
vt 0.846942 0.242816
vt 0.827223 0.170590
vt 0.549119 0.450253
vt 0.625010 0.449651
vt 0.703710 0.861441
vt 0.627964 0.862003
vt 0.552217 0.862565
vt 0.810038 0.098398
vt 0.700727 0.449233
vt 0.399303 0.246562
vt 0.347778 0.155569
vt 0.315867 0.288482
vt 0.894600 0.153383
vt 0.862824 0.025419
vt 0.928815 0.281356
vt 0.377762 0.020572
vt 0.537816 0.963996
vt 0.453060 0.928792
vt 0.477868 0.846543
vt 0.572953 0.868700
vt 0.477445 0.746184
vt 0.500373 0.599440
vt 0.598618 0.616526
vt 0.563435 0.754382
vt 0.603608 0.285720
vt 0.653204 0.388778
vt 0.598848 0.383907
vt 0.563992 0.246047
vt 0.500000 1.000000
vt 0.500000 0.916614
vt 0.916614 0.916614
vt 1.000000 1.000000
vt 0.633421 0.500238
vt 0.740874 0.379151
vt 0.721914 0.500252
vt 0.549386 0.968694
vt 0.597443 0.854610
vt 0.681120 0.863643
vt 0.631705 1.000000
vt 0.603074 0.714788
vt 0.653049 0.611826
vt 0.740874 0.621035
vt 0.691483 0.735614
vt 0.500000 0.083386
vt 0.083386 0.083386
vt 0.000000 0.000000
vt 0.500000 0.000000
vt 0.500000 0.125000
vt 0.250000 0.125000
vt 0.320583 0.422628
vt 0.399808 0.499898
vt 0.323796 0.499761
vt 0.125000 0.250000
vt 0.125000 0.500000
vt 0.083386 0.500000
vt 0.000000 0.500000
vt 0.083386 0.916614
vt 0.000000 1.000000
vt 0.393730 0.419145
vt 0.500638 0.400744
vt 0.916614 0.083386
vt 0.916614 0.500000
vt 0.875000 0.500000
vt 0.875000 0.250000
vt 0.499311 0.500077
vt 0.500000 0.875000
vt 0.750000 0.875000
vt 0.875000 0.750000
vt 0.250000 0.875000
vt 0.683142 0.136441
vt 0.689963 0.264935
vt 0.597609 0.145533
vt 0.584437 0.500186
vt 0.125000 0.750000
vt 1.000000 0.000000
vt 0.549035 0.031754
vt 0.631434 0.000000
vt 1.000000 0.500000
vt 0.750000 0.125000
vt 0.573066 0.131601
vt 0.537470 0.036519
vt 0.477960 0.254309
vt 0.478119 0.154245
vt 0.749705 0.749705
vt 0.500000 0.749705
vt 0.500000 0.500000
vt 0.749705 0.500000
vt 0.749705 0.874557
vt 0.500000 0.874557
vt 0.500000 0.250295
vt 0.749705 0.250295
vt 0.250295 0.500000
vt 0.250295 0.250295
vt 0.250295 0.874557
vt 0.250295 0.749705
vt 0.874557 0.500000
vt 0.874557 0.250295
vt 0.874557 0.874557
vt 0.874557 0.749705
vt 0.749705 0.125443
vt 0.874557 0.125443
vt 0.250295 0.125443
vt 0.500000 0.125443
vt 0.125443 0.250295
vt 0.125443 0.125443
vt 0.125443 0.500000
vt 0.125443 0.874557
vt 0.125443 0.749705
vt 0.125000 0.125000
vt 0.875000 0.125000
vt 0.875000 0.875000
vt 0.125000 0.875000
vt 0.452850 0.072203
vt 0.320312 0.576879
vt 0.393452 0.580627
s 0
usemtl MatChecker
f 26/1/1 14/2/1 4/3/1 20/4/1
f 24/5/2 10/6/2 8/7/2 21/8/2
f 25/9/3 16/10/3 6/11/3 22/12/3
f 23/13/4 12/14/4 2/15/4 19/16/4
f 18/17/5 15/18/5 5/19/5 11/20/5
f 17/21/6 14/2/6 2/22/6 12/23/6
f 16/10/6 17/21/6 12/23/6 6/11/6
f 13/24/5 18/17/5 11/20/5 1/25/5
f 22/26/4 6/27/4 12/14/4 23/13/4
f 20/28/2 4/3/2 10/6/2 24/5/2
f 3/29/5 9/30/5 18/17/5 13/24/5
f 8/7/7 10/6/7 17/21/7 16/10/7
f 10/6/7 4/3/7 14/2/7 17/21/7
f 9/30/5 7/31/5 15/18/5 18/17/5
f 21/32/3 8/7/3 16/10/3 25/9/3
f 19/33/1 2/22/1 14/2/1 26/1/1
f 34/34/1 19/33/1 26/1/1 33/35/1
f 28/36/3 21/32/3 25/9/3 32/37/3
f 27/38/2 20/28/2 24/5/2 31/39/2
f 29/40/4 22/26/4 23/13/4 30/41/4
f 30/41/4 23/13/4 19/16/4 34/42/4
f 32/37/3 25/9/3 22/12/3 29/43/3
f 31/39/2 24/5/2 21/8/2 28/44/2
f 33/35/1 26/1/1 20/4/1 27/45/1
f 13/46/8 33/35/8 27/45/8 3/47/8
f 9/30/9 31/39/9 28/44/9 7/31/9
f 15/48/10 32/37/10 29/43/10 5/49/10
f 11/20/11 30/41/11 34/42/11 1/25/11
f 5/19/11 29/40/11 30/41/11 11/20/11
f 3/29/9 27/38/9 31/39/9 9/30/9
f 7/50/10 28/36/10 32/37/10 15/48/10
f 1/51/8 34/34/8 33/35/8 13/46/8
f 43/52/12 63/53/12 64/54/12 41/55/12
f 60/56/13 73/57/13 42/58/13 55/59/13
f 59/60/14 48/61/14 38/62/14 54/63/14
f 56/64/4 61/65/4 65/66/4 39/67/4
f 51/68/15 48/61/15 36/69/15 46/70/15
f 52/71/5 49/72/5 39/73/5 45/74/5
f 58/75/16 50/76/16 40/77/16 56/78/16
f 66/79/4 75/80/4 36/81/4 53/82/4
f 55/59/17 42/58/17 50/76/17 58/75/17
f 75/80/18 66/79/18 96/83/18 97/84/18
f 69/85/2 57/86/2 63/87/2
f 75/80/19 85/88/19 83/89/19 70/90/19
f 46/91/4 70/90/4 72/92/4 40/93/4
f 67/94/2 74/95/2 57/86/2
f 68/96/20 62/97/20 92/98/20 94/99/20
f 73/57/2 57/86/2 71/100/2
f 65/66/21 61/65/21 79/101/21 90/102/21
f 62/97/20 65/66/20 93/103/20 92/98/20
f 61/65/21 72/92/21 86/104/21 79/101/21
f 35/105/22 53/106/22 59/60/22 47/107/22
f 42/58/23 44/108/23 51/68/23 50/76/23
f 72/92/19 70/90/19 83/89/19 84/109/19
f 50/76/15 51/68/15 46/70/15 40/77/15
f 43/52/5 41/55/5 49/72/5 52/71/5
f 68/96/4 66/79/4 53/82/4 35/110/4
f 49/72/16 58/75/16 56/78/16 39/73/16
f 47/107/5 52/111/5 45/112/5 35/105/5
f 64/54/13 60/56/13 55/59/13 41/55/13
f 65/66/4 62/97/4 45/113/4 39/67/4
f 62/97/4 68/96/4 35/110/4 45/113/4
f 68/96/18 98/114/18 96/83/18 66/79/18
f 37/115/5 43/116/5 52/111/5 47/107/5
f 53/106/22 36/69/22 48/61/22 59/60/22
f 44/108/23 38/62/23 48/61/23 51/68/23
f 54/63/24 67/117/24 69/118/24 37/115/24
s 1
f 88/119/25 78/120/26 77/121/4 87/122/27
f 90/123/28 79/124/29 78/120/26 88/119/25
f 87/122/27 77/121/4 81/125/30 89/126/31
f 77/121/4 76/127/32 82/128/33 81/125/30
f 79/124/29 86/129/34 80/130/35 78/120/26
f 78/120/26 80/130/35 76/127/32 77/121/4
f 92/131/36 87/122/27 89/126/31 94/132/37
f 95/133/38 90/123/28 88/119/25 93/134/39
f 93/134/39 88/119/25 87/122/27 92/131/36
f 94/132/37 89/126/31 98/135/40 99/136/41
f 81/125/30 82/128/33 97/137/42 96/138/43
f 89/126/31 81/125/30 96/138/43 98/135/40
f 82/128/33 85/139/44 100/140/45 97/137/42
f 76/127/32 83/141/46 85/139/44 82/128/33
f 86/129/34 91/142/47 84/143/48 80/130/35
f 80/130/35 84/143/48 83/141/46 76/127/32
s 0
f 85/88/19 75/80/19 100/144/19
f 97/84/18 100/144/18 75/80/18
f 94/99/20 99/145/20 68/96/20
f 90/102/21 95/146/21 65/66/21
f 93/103/20 65/66/20 95/146/20
f 86/104/21 72/92/21 91/147/21
f 84/109/19 91/147/19 72/92/19
f 98/114/18 68/96/18 99/145/18
f 44/108/49 42/58/49 73/57/49 71/100/49
f 47/107/14 59/60/14 54/63/14 37/115/14
f 74/95/2 71/100/2 57/86/2
f 69/85/2 67/94/2 57/86/2
f 54/63/24 38/62/24 74/95/24 67/117/24
f 46/91/4 36/81/4 75/80/4 70/90/4
f 69/118/12 63/148/12 43/116/12 37/115/12
f 57/86/2 64/149/2 63/87/2
f 64/149/2 57/86/2 60/150/2
f 44/108/49 71/100/49 74/95/49 38/62/49
f 57/86/2 73/57/2 60/150/2
f 41/55/17 55/59/17 58/75/17 49/72/17
f 56/64/4 40/93/4 72/92/4 61/65/4
