# Blender 4.4.0
# www.blender.org
mtllib CL3D_Mug.mtl
o Mug
v 0.000000 0.163370 -0.071761
v 0.027462 0.163370 -0.066298
v 0.050742 0.163370 -0.050742
v 0.066298 0.163370 -0.027462
v 0.071761 0.163370 0.000000
v 0.066298 0.163370 0.027462
v 0.050742 0.163370 0.050742
v 0.027462 0.163370 0.066298
v 0.000000 0.163370 0.071761
v 0.000000 -0.000000 -0.081685
v 0.000000 0.163370 -0.081685
v 0.031260 -0.000000 -0.075467
v 0.031260 0.163370 -0.075467
v 0.057760 -0.000000 -0.057760
v 0.057760 0.163370 -0.057760
v 0.075467 -0.000000 -0.031260
v 0.075467 0.163370 -0.031260
v 0.081685 -0.000000 0.000000
v 0.081685 0.163370 0.000000
v 0.075467 -0.000000 0.031260
v 0.075467 0.163370 0.031260
v 0.057760 -0.000000 0.057760
v 0.057760 0.163370 0.057760
v 0.031260 -0.000000 0.075467
v 0.031260 0.163370 0.075467
v 0.000000 -0.000000 0.081685
v 0.000000 0.163370 0.081685
v 0.000000 0.021499 -0.071761
v 0.000000 0.021499 0.071761
v 0.027462 0.021499 -0.066298
v 0.050742 0.021499 -0.050742
v 0.066298 0.021499 -0.027462
v 0.071761 0.021499 0.000000
v 0.066298 0.021499 0.027462
v 0.050742 0.021499 0.050742
v 0.027462 0.021499 0.066298
v -0.027462 0.163370 -0.066298
v -0.050742 0.163370 -0.050742
v -0.066298 0.163370 -0.027462
v -0.071761 0.163370 0.000000
v -0.066298 0.163370 0.027462
v -0.050742 0.163370 0.050742
v -0.027462 0.163370 0.066298
v -0.031260 -0.000000 -0.075467
v -0.031260 0.163370 -0.075467
v -0.057760 -0.000000 -0.057760
v -0.057760 0.163370 -0.057760
v -0.075467 -0.000000 -0.031260
v -0.075467 0.163370 -0.031260
v -0.081685 -0.000000 0.000000
v -0.081685 0.163370 0.000000
v -0.075467 -0.000000 0.031260
v -0.075467 0.163370 0.031260
v -0.057760 -0.000000 0.057760
v -0.057760 0.163370 0.057760
v -0.031260 -0.000000 0.075467
v -0.031260 0.163370 0.075467
v -0.027462 0.021499 -0.066298
v -0.050742 0.021499 -0.050742
v -0.066298 0.021499 -0.027462
v -0.071761 0.021499 0.000000
v -0.066298 0.021499 0.027462
v -0.050742 0.021499 0.050742
v -0.027462 0.021499 0.066298
v -0.050742 0.081685 -0.050742
v -0.066298 0.081685 0.027462
v -0.027462 0.081685 -0.066298
v -0.071761 0.081685 0.000000
v -0.027462 0.081685 0.066298
v -0.066298 0.081685 -0.027462
v -0.050742 0.081685 0.050742
v 0.050742 0.081685 -0.050742
v 0.066298 0.081685 0.027462
v 0.000000 0.081685 0.071761
v 0.027462 0.081685 -0.066298
v 0.071761 0.081685 0.000000
v 0.027462 0.081685 0.066298
v 0.066298 0.081685 -0.027462
v 0.050742 0.081685 0.050742
v 0.000000 0.081685 -0.071761
v -0.031260 0.081685 0.075467
v -0.057760 0.081685 0.057760
v -0.075467 0.081685 0.031260
v -0.081685 0.081685 0.000000
v -0.075467 0.081685 -0.031260
v -0.057760 0.081685 -0.057760
v -0.031260 0.081685 -0.075467
v 0.000000 0.081685 0.081685
v 0.031260 0.081685 0.075467
v 0.057760 0.081685 0.057760
v 0.075467 0.081685 0.031260
v 0.081685 0.081685 0.000000
v 0.075467 0.081685 -0.031260
v 0.057760 0.081685 -0.057760
v 0.031260 0.081685 -0.075467
v 0.000000 0.081685 -0.081685
v 0.137968 0.081685 -0.011251
v 0.121491 0.041905 -0.011251
v 0.121491 0.121465 -0.011251
v 0.078964 0.137781 -0.011251
v 0.078964 0.025589 -0.011251
v 0.121491 0.121465 0.011251
v 0.078964 0.137781 0.011251
v 0.078964 0.025589 0.011251
v 0.137968 0.081685 0.011251
v 0.121491 0.041905 0.011251
v 0.081710 0.149122 -0.000000
v 0.129624 0.129599 -0.000000
v 0.149471 0.081685 0.000000
v 0.081710 0.014248 0.000000
v 0.129624 0.033771 0.000000
v 0.113357 0.113332 -0.000000
v 0.081710 0.126440 -0.000000
v 0.126466 0.081685 0.000000
v 0.113357 0.050038 0.000000
v 0.081710 0.036930 0.000000
v -0.057760 -0.000000 0.000000
v -0.050742 0.021499 0.000000
v -0.027462 0.021499 0.000000
v 0.000000 0.021499 0.000000
v 0.027462 0.021499 0.000000
v 0.050742 0.021499 0.000000
v -0.031260 -0.000000 0.000000
v 0.000000 -0.000000 0.000000
v 0.031260 -0.000000 0.000000
v 0.057760 -0.000000 0.000000
vn -0.0000 0.7538 0.6571
vn -0.2515 0.7538 0.6071
vn -0.4647 0.7538 0.4647
vn -0.6071 0.7538 0.2515
vn -0.6571 0.7538 -0.0000
vn -0.6071 0.7538 -0.2515
vn -0.4647 0.7538 -0.4647
vn -0.2515 0.7538 -0.6071
vn -0.0000 0.7538 -0.6571
vn -0.0000 -0.6657 -0.7462
vn -0.0000 0.6657 -0.7462
vn 0.2856 -0.6657 -0.6894
vn 0.2856 0.6657 -0.6894
vn 0.5276 -0.6657 -0.5276
vn 0.5276 0.6657 -0.5276
vn 0.6894 -0.6657 -0.2856
vn 0.6894 0.6657 -0.2856
vn 0.7462 -0.6657 -0.0000
vn 0.7462 0.6657 -0.0000
vn 0.6894 -0.6657 0.2856
vn 0.6894 0.6657 0.2856
vn 0.5276 -0.6657 0.5276
vn 0.5276 0.6657 0.5276
vn 0.2856 -0.6657 0.6894
vn 0.2856 0.6657 0.6894
vn -0.0000 -0.6657 0.7462
vn -0.0000 0.6657 0.7462
vn -0.2856 0.6657 0.6894
vn -0.5276 0.6657 0.5276
vn -0.6894 0.6657 0.2856
vn -0.7462 0.6657 -0.0000
vn -0.6894 0.6657 -0.2856
vn -0.5276 0.6657 -0.5276
vn -0.2856 0.6657 -0.6894
vn 0.2515 0.7538 0.6071
vn 0.4647 0.7538 0.4647
vn 0.6071 0.7538 0.2515
vn 0.6571 0.7538 -0.0000
vn 0.6071 0.7538 -0.2515
vn 0.4647 0.7538 -0.4647
vn 0.2515 0.7538 -0.6071
vn -0.2856 -0.6657 -0.6894
vn -0.5276 -0.6657 -0.5276
vn -0.6894 -0.6657 -0.2856
vn -0.7462 -0.6657 -0.0000
vn -0.6894 -0.6657 0.2856
vn -0.5276 -0.6657 0.5276
vn -0.2856 -0.6657 0.6894
vn 0.7071 -0.0000 0.7071
vn 0.9239 -0.0000 -0.3827
vn 0.3827 -0.0000 0.9239
vn 1.0000 -0.0000 -0.0000
vn 0.3827 -0.0000 -0.9239
vn 0.9239 -0.0000 0.3827
vn 0.7071 -0.0000 -0.7071
vn -0.7071 -0.0000 0.7071
vn -0.9239 -0.0000 -0.3827
vn -0.0000 -0.0000 -1.0000
vn -0.3827 -0.0000 0.9239
vn -1.0000 -0.0000 -0.0000
vn -0.3827 -0.0000 -0.9239
vn -0.9239 -0.0000 0.3827
vn -0.7071 -0.0000 -0.7071
vn -0.0000 -0.0000 1.0000
vn 0.1701 -0.0000 -0.9854
vn 0.1170 -0.1159 -0.9863
vn 0.1170 0.1159 -0.9863
vn 0.0617 0.1561 -0.9858
vn 0.0617 -0.1561 -0.9858
vn 0.1170 0.1159 0.9863
vn 0.0617 0.1561 0.9858
vn 0.0617 -0.1561 0.9858
vn 0.1701 -0.0000 0.9854
vn 0.1170 -0.1159 0.9863
vn 0.3684 0.9297 -0.0000
vn 0.7050 0.7092 -0.0000
vn 0.3684 -0.9297 -0.0000
vn 0.7050 -0.7092 -0.0000
vn -0.6979 -0.7162 -0.0000
vn -0.3687 -0.9295 -0.0000
vn -0.6979 0.7162 -0.0000
vn -0.3687 0.9295 -0.0000
vn -0.0000 -1.0000 -0.0000
vn -0.0000 1.0000 -0.0000
vt 0.875000 0.750000
vt 0.875000 0.500000
vt 0.937500 0.500000
vt 0.937500 0.750000
vt 0.812500 0.750000
vt 0.812500 0.500000
vt 0.750000 0.750000
vt 0.750000 0.500000
vt 0.687500 0.750000
vt 0.687500 0.500000
vt 0.625000 0.750000
vt 0.625000 0.500000
vt 0.562500 0.750000
vt 0.562500 0.500000
vt 0.330685 0.055209
vt 0.341844 0.028269
vt 0.250000 0.010000
vt 0.250000 0.039159
vt 0.250000 0.460841
vt 0.330685 0.444791
vt 0.341844 0.471731
vt 0.250000 0.490000
vt 0.399087 0.399087
vt 0.419706 0.419706
vt 0.444791 0.330685
vt 0.471731 0.341844
vt 0.460841 0.250000
vt 0.490000 0.250000
vt 0.444791 0.169315
vt 0.471731 0.158156
vt 0.399087 0.100913
vt 0.419706 0.080294
vt 0.500000 0.500000
vt 0.444791 0.169315
vt 0.399087 0.100913
vt 0.444791 0.330685
vt 0.330685 0.444791
vt 0.500000 0.750000
vt 1.000000 0.500000
vt 1.000000 0.750000
vt 0.500000 1.000000
vt 0.562500 1.000000
vt 0.444791 0.330685
vt 0.937500 1.000000
vt 1.000000 1.000000
vt 0.625000 1.000000
vt 0.687500 1.000000
vt 0.750000 1.000000
vt 0.812500 1.000000
vt 0.875000 1.000000
vt 0.605420 0.593750
vt 0.512043 0.519207
vt 0.399087 0.100913
vt 0.375000 0.488330
vt 0.625000 0.968750
vt 0.500000 0.968750
vt 0.750000 0.968750
vt 0.625000 0.968750
vt 0.375000 0.519580
vt 0.512043 0.550457
vt 0.605420 0.625000
vt 0.512043 0.550457
vt 0.444791 0.250000
vt 0.399087 0.250000
vt 0.330685 0.250000
vt 0.250000 0.250000
s 1
f 94/1/55 14/2/14 12/3/12 95/4/53
f 93/5/50 16/6/16 14/2/14 94/1/55
f 92/7/52 18/8/18 16/6/16 93/5/50
f 91/9/54 20/10/20 18/8/18 92/7/52
f 90/11/49 22/12/22 20/10/20 91/9/54
f 89/13/51 24/14/24 22/12/22 90/11/49
f 43/15/41 57/16/28 27/17/27 9/18/9
f 1/19/1 2/20/2 13/21/13 11/22/11
f 2/20/2 3/23/3 15/24/15 13/21/13
f 3/23/3 4/25/4 17/26/17 15/24/15
f 4/25/4 5/27/5 19/28/19 17/26/17
f 5/27/5 6/29/6 21/30/21 19/28/19
f 54/12/47 52/10/46 50/8/45 117/8/83
f 6/29/6 7/31/7 23/32/23 21/30/21
f 56/14/48 54/12/47 117/8/83 123/8/83
f 7/31/7 8/15/8 25/16/25 23/32/23
f 26/33/26 56/14/48 123/8/83 124/8/83
f 73/34/57 79/35/63 7/31/7 6/29/6
f 72/23/56 78/36/62 4/25/4 3/23/3
f 79/35/63 77/15/61 8/15/8 7/31/7
f 78/36/62 76/27/60 5/27/5 4/25/4
f 80/19/64 75/37/59 2/20/2 1/19/1
f 77/15/61 74/18/58 9/18/9 8/15/8
f 76/27/60 73/34/57 6/29/6 5/27/5
f 24/14/24 26/33/26 124/8/83 125/8/83
f 88/38/64 26/33/26 24/14/24 89/13/51
f 95/4/53 12/3/12 10/39/10 96/40/58
f 75/37/59 72/23/56 3/23/3 2/20/2
f 27/41/27 88/38/64 89/13/51 25/42/25
f 87/4/61 44/3/42 46/2/43 86/1/63
f 86/1/63 46/2/43 48/6/44 85/5/57
f 85/5/57 48/6/44 50/8/45 84/7/60
f 84/7/60 50/8/45 52/10/46 83/9/62
f 83/9/62 52/10/46 54/12/47 82/11/56
f 82/11/56 54/12/47 56/14/48 81/13/59
f 1/19/1 11/22/11 45/21/34 37/20/35
f 22/12/22 24/14/24 125/8/83 126/8/83
f 37/20/35 45/21/34 47/24/33 38/23/36
f 20/10/20 22/12/22 126/8/83 18/8/18
f 38/23/36 47/24/33 49/26/32 39/25/37
f 117/8/83 50/8/45 48/6/44 46/2/43
f 39/25/37 49/26/32 51/28/31 40/27/38
f 123/8/83 117/8/83 46/2/43 44/3/42
f 40/27/38 51/28/31 53/30/30 41/29/39
f 124/8/83 123/8/83 44/3/42 10/39/10
f 41/29/39 53/30/30 55/32/29 42/31/40
f 125/8/83 124/8/83 10/39/10 12/3/12
f 42/31/40 55/32/29 57/16/28 43/15/41
f 126/8/83 125/8/83 12/3/12 14/2/14
f 10/39/10 44/3/42 87/4/61 96/40/58
f 71/35/55 66/29/50 41/29/39 42/31/40
f 70/43/54 65/23/49 38/23/36 39/25/37
f 69/15/53 71/35/55 42/31/40 43/15/41
f 68/27/52 70/43/54 39/25/37 40/27/38
f 67/20/51 80/19/64 1/19/1 37/20/35
f 74/18/58 69/15/53 43/15/41 9/18/9
f 66/29/50 68/27/52 40/27/38 41/29/39
f 18/8/18 126/8/83 14/2/14 16/6/16
f 81/13/59 56/14/48 26/33/26 88/38/64
f 33/27/31 34/29/32 73/34/57 76/27/60
f 36/15/34 29/18/11 74/18/58 77/15/61
f 28/19/27 30/20/28 75/37/59 80/19/64
f 32/25/30 33/27/31 76/27/60 78/36/62
f 35/31/33 36/15/34 77/15/61 79/35/63
f 31/23/29 32/25/30 78/36/62 72/23/56
f 34/29/32 35/31/33 79/35/63 73/34/57
f 8/15/8 9/18/9 27/17/27 25/16/25
f 96/40/58 87/4/61 45/44/34 11/45/11
f 25/42/25 89/13/51 90/11/49 23/46/23
f 23/46/23 90/11/49 91/9/54 21/47/21
f 21/47/21 91/9/54 92/7/52 19/48/19
f 19/48/19 92/7/52 93/5/50 17/49/17
f 17/49/17 93/5/50 94/1/55 15/50/15
f 15/50/15 94/1/55 95/4/53 13/44/13
f 59/23/23 58/20/25 67/20/51 65/23/49
f 57/42/28 81/13/59 88/38/64 27/41/27
f 55/46/29 82/11/56 81/13/59 57/42/28
f 53/47/30 83/9/62 82/11/56 55/46/29
f 51/48/31 84/7/60 83/9/62 53/47/30
f 49/49/32 85/5/57 84/7/60 51/48/31
f 47/50/33 86/1/63 85/5/57 49/49/32
f 45/44/34 87/4/61 86/1/63 47/50/33
f 13/44/13 95/4/53 96/40/58 11/45/11
f 65/23/49 67/20/51 37/20/35 38/23/36
f 30/20/28 31/23/29 72/23/56 75/37/59
f 63/31/15 62/29/17 66/29/50 71/35/55
f 60/25/21 59/23/23 65/23/49 70/43/54
f 64/15/13 63/31/15 71/35/55 69/15/53
f 61/27/19 60/25/21 70/43/54 68/27/52
f 58/20/25 28/19/27 80/19/64 67/20/51
f 29/18/11 64/15/13 69/15/53 74/18/58
f 62/29/17 61/27/19 68/27/52 66/29/50
f 100/51/68 99/52/67 112/53/79 113/27/80
f 99/52/67 97/54/65 114/18/60 112/53/79
f 108/55/76 109/56/52 97/54/65 99/52/67
f 114/18/60 97/54/65 98/52/66 115/31/81
f 107/57/75 108/55/76 99/52/67 100/51/68
f 98/52/66 101/51/69 116/27/82 115/31/81
f 111/58/78 109/56/52 105/59/73 106/60/74
f 104/61/72 110/57/77 111/58/78 106/60/74
f 108/55/76 102/62/70 105/59/73 109/56/52
f 114/18/60 115/31/81 106/60/74 105/59/73
f 102/62/70 112/53/79 114/18/60 105/59/73
f 101/51/69 98/52/66 111/58/78 110/57/77
f 111/58/78 98/52/66 97/54/65 109/56/52
f 102/62/70 108/55/76 107/57/75 103/61/71
f 103/61/71 113/27/80 112/53/79 102/62/70
f 115/31/81 116/27/82 104/61/72 106/60/74
f 61/63/19 118/64/84 59/23/23 60/25/21
f 118/64/84 119/65/84 58/20/25 59/23/23
f 119/65/84 120/66/84 28/19/27 58/20/25
f 120/66/84 121/65/84 30/20/28 28/19/27
f 121/65/84 122/64/84 31/23/29 30/20/28
f 122/64/84 33/63/31 32/25/30 31/23/29
f 35/31/33 34/29/32 33/63/31 122/64/84
f 36/15/34 35/31/33 122/64/84 121/65/84
f 29/18/11 36/15/34 121/65/84 120/66/84
f 64/15/13 29/18/11 120/66/84 119/65/84
f 63/31/15 64/15/13 119/65/84 118/64/84
f 62/29/17 63/31/15 118/64/84 61/63/19
