# Blender 4.4.0
# www.blender.org
mtllib CL3D_BaseCube.mtl
o BaseCube
v -1.000000 -1.000000 1.000000
v -1.000000 1.000000 1.000000
v -1.000000 -1.000000 -1.000000
v -1.000000 1.000000 -1.000000
v 1.000000 -1.000000 1.000000
v 1.000000 1.000000 1.000000
v 1.000000 -1.000000 -1.000000
v 1.000000 1.000000 -1.000000
v 0.000000 -1.000000 -1.000000
v 0.000000 1.000000 -1.000000
v 0.000000 -1.000000 1.000000
v 0.000000 1.000000 1.000000
v -1.000000 -1.000000 0.000000
v -1.000000 1.000000 0.000000
v 1.000000 -1.000000 0.000000
v 1.000000 1.000000 0.000000
v 0.000000 1.000000 0.000000
v 0.000000 -1.000000 0.000000
v -1.000000 0.000000 1.000000
v -1.000000 0.000000 -1.000000
v 1.000000 0.000000 -1.000000
v 1.000000 0.000000 1.000000
v 0.000000 0.000000 1.000000
v 0.000000 0.000000 -1.000000
v 1.000000 0.000000 0.000000
v -1.000000 0.000000 0.000000
vn -1.0000 -0.0000 -0.0000
vn -0.0000 -0.0000 -1.0000
vn 1.0000 -0.0000 -0.0000
vn -0.0000 -0.0000 1.0000
vn -0.0000 -1.0000 -0.0000
vn -0.0000 1.0000 -0.0000
vt 0.500000 0.500000
vt 0.000000 0.500000
vt 0.000000 0.000000
vt 0.500000 0.000000
vt 0.500000 1.000000
vt 0.000000 1.000000
vt 1.000000 0.000000
vt 1.000000 0.500000
vt 1.000000 1.000000
s 0
usemtl MatChecker
f 26/1/1 14/2/1 4/3/1 20/4/1
f 24/1/2 10/2/2 8/3/2 21/4/2
f 25/1/3 16/2/3 6/3/3 22/4/3
f 23/1/4 12/2/4 2/3/4 19/4/4
f 18/1/5 15/5/5 5/6/5 11/2/5
f 17/1/6 14/5/6 2/6/6 12/2/6
f 16/4/6 17/1/6 12/2/6 6/3/6
f 13/4/5 18/1/5 11/2/5 1/3/5
f 22/5/4 6/6/4 12/2/4 23/1/4
f 20/5/2 4/6/2 10/2/2 24/1/2
f 3/7/5 9/8/5 18/1/5 13/4/5
f 8/7/6 10/8/6 17/1/6 16/4/6
f 10/8/6 4/9/6 14/5/6 17/1/6
f 9/8/5 7/9/5 15/5/5 18/1/5
f 21/5/3 8/6/3 16/2/3 25/1/3
f 19/5/1 2/6/1 14/2/1 26/1/1
f 1/9/1 19/5/1 26/1/1 13/8/1
f 7/9/3 21/5/3 25/1/3 15/8/3
f 3/9/2 20/5/2 24/1/2 9/8/2
f 5/9/4 22/5/4 23/1/4 11/8/4
f 11/8/4 23/1/4 19/4/4 1/7/4
f 15/8/3 25/1/3 22/4/3 5/7/3
f 9/8/2 24/1/2 21/4/2 7/7/2
f 13/8/1 26/1/1 20/4/1 3/7/1
