# Blender 4.4.0
# www.blender.org
mtllib CL3D_Floor.mtl
o Floor
v -1.000000 0.000000 1.000000
v -1.000000 0.000000 -1.000000
v 1.000000 0.000000 1.000000
v 1.000000 0.000000 -1.000000
v 0.000000 0.000000 -1.000000
v 0.000000 0.000000 1.000000
v -1.000000 0.000000 0.000000
v 1.000000 0.000000 0.000000
v 0.000000 0.000000 0.000000
vn -0.0000 1.0000 -0.0000
vt 0.500000 0.000000
vt 0.500000 0.500000
vt 0.000000 0.500000
vt 0.000000 0.000000
vt 0.500000 0.500000
vt 0.500000 1.000000
vt -0.000000 1.000000
vt 0.000000 0.500000
vt 1.000000 0.000000
vt 1.000000 0.500000
vt 0.500000 0.500000
vt 0.500000 0.000000
vt 1.000000 0.500000
vt 1.000000 1.000000
vt 0.500000 1.000000
vt 0.500000 0.500000
s 0
usemtl MatChecker
f 9/1/1 7/2/1 1/3/1 6/4/1
f 8/5/1 9/6/1 6/7/1 3/8/1
f 4/9/1 5/10/1 9/11/1 8/12/1
f 5/13/1 2/14/1 7/15/1 9/16/1
