# Blender 4.4.0
# www.blender.org
mtllib CL3D_Table1.mtl
o Table1
v 1.000000 -1.000000 1.000000
v 1.000000 -1.000000 -1.000000
v 1.000000 0.000000 -1.000000
v 1.000000 0.000000 1.000000
v 0.000000 0.000000 1.000000
v 0.000000 0.000000 -1.000000
v 1.000000 0.000000 0.750000
v 1.000000 -1.000000 0.750000
v 1.000000 -1.000000 -0.750000
v 1.000000 0.000000 -0.750000
v 0.750000 -1.000000 1.000000
v 0.750000 0.000000 -1.000000
v 0.750000 -1.000000 -1.000000
v 0.750000 0.000000 1.000000
v 0.750000 -1.000000 0.750000
v 0.750000 -1.000000 -0.750000
v 0.750000 -0.125000 -1.000000
v 0.750000 -0.125000 1.000000
v 1.000000 -0.125000 -0.750000
v 1.000000 -0.125000 0.750000
v 0.000000 -0.125000 -1.000000
v 0.000000 -0.125000 1.000000
v 1.000000 -0.125000 1.000000
v 1.000000 -0.125000 -1.000000
v 0.750000 0.000000 -1.000000
v 0.750000 0.000000 1.000000
v 0.750000 0.000000 0.750000
v 0.750000 0.000000 -0.750000
v 0.000000 0.000000 -1.000000
v 0.000000 0.000000 1.000000
v 0.000000 -0.125000 -0.750000
v 0.000000 0.000000 0.750000
v 0.000000 -0.125000 0.750000
v 0.000000 0.000000 -0.750000
v 0.750000 -0.125000 0.750000
v 0.750000 -0.125000 -0.750000
v 0.375000 0.000000 -1.000000
v 0.375000 -0.125000 -1.000000
v 0.375000 -0.125000 1.000000
v 0.375000 0.000000 1.000000
v 0.375000 -0.125000 0.750000
v 0.375000 -0.125000 -0.750000
v -1.000000 -1.000000 1.000000
v -1.000000 -1.000000 -1.000000
v -1.000000 0.000000 -1.000000
v -1.000000 0.000000 1.000000
v -1.000000 0.000000 0.750000
v -1.000000 -1.000000 0.750000
v -1.000000 -1.000000 -0.750000
v -1.000000 0.000000 -0.750000
v -0.750000 -1.000000 1.000000
v -0.750000 0.000000 -1.000000
v -0.750000 -1.000000 -1.000000
v -0.750000 0.000000 1.000000
v -0.750000 -1.000000 0.750000
v -0.750000 -1.000000 -0.750000
v -0.750000 -0.125000 -1.000000
v -0.750000 -0.125000 1.000000
v -1.000000 -0.125000 -0.750000
v -1.000000 -0.125000 0.750000
v -1.000000 -0.125000 1.000000
v -1.000000 -0.125000 -1.000000
v -0.750000 0.000000 -1.000000
v -0.750000 0.000000 1.000000
v -0.750000 0.000000 0.750000
v -0.750000 0.000000 -0.750000
v -0.750000 -0.125000 0.750000
v -0.750000 -0.125000 -0.750000
v -0.375000 0.000000 -1.000000
v -0.375000 -0.125000 -1.000000
v -0.375000 -0.125000 1.000000
v -0.375000 0.000000 1.000000
v -0.375000 -0.125000 0.750000
v -0.375000 -0.125000 -0.750000
vn -0.0000 -1.0000 -0.0000
vn -0.0000 -0.0000 -1.0000
vn 1.0000 -0.0000 -0.0000
vn -0.0000 -0.0000 1.0000
vn -0.0000 1.0000 -0.0000
vn -1.0000 -0.0000 -0.0000
vt 0.125000 0.875000
vt 0.125000 1.000000
vt 0.000000 1.000000
vt 0.000000 0.875000
vt 0.500000 0.312500
vt 0.500000 0.125000
vt 0.562500 0.125000
vt 0.562500 0.312500
vt 0.500000 0.000000
vt 0.562500 0.000000
vt 0.500000 0.875000
vt 0.562500 0.875000
vt 1.000000 0.875000
vt 1.000000 1.000000
vt 0.875000 1.000000
vt 0.875000 0.875000
vt 0.562500 1.000000
vt 0.500000 1.000000
vt 0.500000 0.687500
vt 0.500000 0.500000
vt 0.562500 0.500000
vt 0.562500 0.687500
vt 1.000000 0.125000
vt 1.000000 0.000000
s 0
usemtl MatChecker
f 15/1/1 8/2/1 1/3/1 11/4/1
f 37/5/2 12/6/2 17/7/2 38/8/2
f 20/7/3 7/6/3 4/9/3 23/10/3
f 17/7/2 12/6/2 3/9/2 24/10/2
f 10/11/3 7/6/3 20/7/3 19/12/3
f 13/13/1 2/14/1 9/15/1 16/16/1
f 24/17/3 3/18/3 10/11/3 19/12/3
f 40/19/4 5/20/4 22/21/4 39/22/4
f 23/17/4 4/18/4 14/11/4 18/12/4
f 8/23/3 20/7/3 23/10/3 1/24/3
f 13/23/2 17/7/2 24/10/2 2/24/2
f 2/14/3 24/17/3 19/12/3 9/13/3
f 1/14/4 23/17/4 18/12/4 11/13/4
f 19/12/1 20/7/1 35/7/1 36/12/1
f 10/11/5 28/11/5 27/6/5 7/6/5
f 10/11/5 3/18/5 25/18/5 28/11/5
f 4/9/5 7/6/5 27/6/5 26/9/5
f 28/11/5 34/11/5 32/6/5 27/6/5
f 41/7/1 35/7/1 18/7/1 39/7/1
f 42/12/1 41/7/1 33/7/1 31/12/1
f 25/18/5 29/18/5 34/11/5 28/11/5
f 42/12/1 31/12/1 21/12/1 38/12/1
f 27/6/5 32/6/5 30/9/5 26/9/5
f 15/1/6 11/4/6 18/4/6 35/1/6
f 8/2/2 15/1/2 35/1/2 20/2/2
f 13/13/6 16/16/6 36/16/6 17/13/6
f 16/16/4 9/15/4 19/15/4 36/16/4
f 36/12/1 42/12/1 38/12/1 17/12/1
f 36/12/1 35/7/1 41/7/1 42/12/1
f 33/7/1 41/7/1 39/7/1 22/7/1
f 14/11/4 40/19/4 39/22/4 18/12/4
f 6/20/2 37/5/2 38/8/2 21/21/2
f 55/1/1 51/4/1 43/3/1 48/2/1
f 69/5/2 70/8/2 57/7/2 52/6/2
f 60/7/6 61/10/6 46/9/6 47/6/6
f 57/7/2 62/10/2 45/9/2 52/6/2
f 50/11/6 59/12/6 60/7/6 47/6/6
f 53/13/1 56/16/1 49/15/1 44/14/1
f 62/17/6 59/12/6 50/11/6 45/18/6
f 72/19/4 71/22/4 22/21/4 5/20/4
f 61/17/4 58/12/4 54/11/4 46/18/4
f 48/23/6 43/24/6 61/10/6 60/7/6
f 53/23/2 44/24/2 62/10/2 57/7/2
f 44/14/6 49/13/6 59/12/6 62/17/6
f 43/14/4 51/13/4 58/12/4 61/17/4
f 59/12/1 68/12/1 67/7/1 60/7/1
f 50/11/5 47/6/5 65/6/5 66/11/5
f 50/11/5 66/11/5 63/18/5 45/18/5
f 46/9/5 64/9/5 65/6/5 47/6/5
f 66/11/5 65/6/5 32/6/5 34/11/5
f 73/7/1 71/7/1 58/7/1 67/7/1
f 74/12/1 31/12/1 33/7/1 73/7/1
f 63/18/5 66/11/5 34/11/5 29/18/5
f 74/12/1 70/12/1 21/12/1 31/12/1
f 65/6/5 64/9/5 30/9/5 32/6/5
f 55/1/3 67/1/3 58/4/3 51/4/3
f 48/2/2 60/2/2 67/1/2 55/1/2
f 53/13/3 57/13/3 68/16/3 56/16/3
f 56/16/4 68/16/4 59/15/4 49/15/4
f 68/12/1 57/12/1 70/12/1 74/12/1
f 68/12/1 74/12/1 73/7/1 67/7/1
f 33/7/1 22/7/1 71/7/1 73/7/1
f 54/11/4 58/12/4 71/22/4 72/19/4
f 6/20/2 21/21/2 70/8/2 69/5/2
