# Blender 4.4.0
# www.blender.org
mtllib CL3D_Ramp.mtl
o Ramp
v -1.000000 -1.000000 1.000000
v -1.000000 1.000000 1.000000
v -1.000000 -1.000000 -1.000000
v -1.000000 1.000000 -1.000000
v 1.000000 -1.000000 1.000000
v 1.000000 -1.000000 -1.000000
v 0.000000 0.000000 -1.000000
v 0.000000 0.000000 1.000000
v 0.000000 0.000000 0.000000
v 1.000000 -1.000000 0.000000
v -1.000000 1.000000 0.000000
v -1.000000 -1.000000 0.000000
v -1.000000 0.000000 1.000000
v 0.000000 -1.000000 1.000000
v -1.000000 0.000000 0.000000
v 0.000000 -1.000000 0.000000
v 0.000000 -1.000000 -1.000000
v -1.000000 0.000000 -1.000000
vn -0.0000 -0.0000 1.0000
vn -0.0000 -0.0000 -1.0000
vn 0.7071 0.7071 -0.0000
vn -0.0000 -1.0000 -0.0000
vn -1.0000 -0.0000 -0.0000
vt 0.375000 0.750000
vt 0.500000 0.875000
vt 0.375000 0.875000
vt 0.625000 0.250000
vt 0.500000 0.375000
vt 0.500000 0.250000
vt 0.500000 0.625000
vt 0.625000 0.625000
vt 0.625000 1.000000
vt 0.375000 0.625000
vt 0.375000 1.000000
vt 0.500000 1.000000
vt 0.375000 0.250000
vt 0.375000 0.375000
vt 0.375000 0.500000
s 0
usemtl MatChecker
f 5/1/1 8/2/1 14/3/1
f 4/4/2 7/5/2 18/6/2
f 9/7/3 11/8/3 2/9/3 8/2/3
f 12/10/4 16/10/4 14/3/4 1/11/4
f 12/10/5 1/11/5 13/12/5 15/7/5
f 3/13/5 12/10/5 15/7/5 18/6/5
f 3/13/4 17/14/4 16/10/4 12/10/4
f 7/5/3 4/4/3 11/8/3 9/7/3
f 6/15/3 7/5/3 9/7/3 10/10/3
f 10/10/3 9/7/3 8/2/3 5/1/3
f 18/6/2 7/5/2 17/14/2 3/13/2
f 16/10/4 17/14/4 6/15/4 10/10/4
f 17/14/2 7/5/2 6/15/2
f 14/3/4 16/10/4 10/10/4 5/1/4
f 15/7/5 13/12/5 2/9/5 11/8/5
f 13/12/1 8/2/1 2/9/1
f 18/6/5 15/7/5 11/8/5 4/4/5
f 14/3/1 8/2/1 13/12/1 1/11/1
