# Blender 4.4.0
# www.blender.org
mtllib CL3D_Keyboard.mtl
o Keyboard
v -0.468943 0.000000 0.183639
v -0.468943 0.023516 0.183639
v -0.468943 0.000000 -0.183639
v -0.468943 0.066382 -0.183639
v 0.468943 0.000000 0.183639
v 0.468943 0.023516 0.183639
v 0.468943 0.000000 -0.183639
v 0.468943 0.066382 -0.183639
v 0.000000 0.000000 -0.183639
v 0.000000 0.066382 -0.183639
v 0.000000 0.000000 0.183639
v 0.000000 0.023516 0.183639
v 0.000000 0.000000 0.000000
v 0.000000 0.044949 0.000000
v 0.468943 0.044949 0.000000
v 0.468943 0.000000 0.000000
v -0.468943 0.044949 0.000000
v -0.468943 0.000000 0.000000
vn -0.0000 -1.0000 -0.0000
vn -0.0000 0.9933 0.1159
vn -0.0000 -0.0000 -1.0000
vn 1.0000 -0.0000 -0.0000
vn -0.0000 -0.0000 1.0000
vn -1.0000 -0.0000 -0.0000
vt 0.500000 0.000000
vt 0.500000 0.500000
vt 0.000000 0.500000
vt 0.000000 0.000000
vt 1.000000 0.000000
vt 1.000000 0.500000
vt 1.000000 1.000000
vt 0.500000 1.000000
vt 1.000000 0.500000
vt 0.000000 1.000000
s 0
usemtl MatChecker
f 18/1/1 13/2/1 11/3/1 1/4/1
f 8/5/2 10/6/2 14/2/2 15/1/2
f 9/6/3 10/3/3 8/4/3 7/5/3
f 10/6/2 4/7/2 17/8/2 14/2/2
f 15/3/4 16/9/4 7/7/4 8/10/4
f 13/2/1 16/8/1 5/10/1 11/3/1
f 14/2/2 17/8/2 2/10/2 12/3/2
f 15/1/2 14/2/2 12/3/2 6/4/2
f 11/6/5 12/3/5 2/4/5 1/5/5
f 5/7/5 6/10/5 12/3/5 11/6/5
f 3/5/1 9/6/1 13/2/1 18/1/1
f 6/4/4 5/5/4 16/9/4 15/3/4
f 9/6/1 7/7/1 16/8/1 13/2/1
f 3/7/3 4/10/3 10/3/3 9/6/3
f 17/3/6 18/9/6 1/7/6 2/10/6
f 4/4/6 3/5/6 18/9/6 17/3/6
