# Blender 4.4.0
# www.blender.org
mtllib CL3D_Table2.mtl
o Table2
v 1.625000 -1.000000 1.000000
v 1.625000 -1.000000 -1.000000
v 1.625000 0.000000 -1.000000
v 1.625000 0.000000 1.000000
v 0.000000 0.000000 1.000000
v 0.000000 0.000000 -1.000000
v 1.625000 0.000000 0.750000
v 1.625000 -1.000000 0.750000
v 1.625000 -1.000000 -0.750000
v 1.625000 0.000000 -0.750000
v 1.375000 -1.000000 1.000000
v 1.375000 -1.000000 -1.000000
v 1.375000 -1.000000 0.750000
v 1.375000 -1.000000 -0.750000
v 1.375000 -0.125000 -1.000000
v 1.375000 -0.125000 1.000000
v 1.625000 -0.125000 -0.750000
v 1.625000 -0.125000 0.750000
v 0.000000 -0.125000 -1.000000
v 0.000000 -0.125000 1.000000
v 1.625000 -0.125000 1.000000
v 1.625000 -0.125000 -1.000000
v 1.375000 0.000000 -1.000000
v 1.375000 0.000000 1.000000
v 1.375000 0.000000 0.750000
v 1.375000 0.000000 -0.750000
v 0.000000 0.000000 -1.000000
v 0.000000 0.000000 1.000000
v 0.000000 -0.125000 -0.750000
v 0.000000 0.000000 0.750000
v 0.000000 -0.125000 0.750000
v 0.000000 0.000000 -0.750000
v 1.375000 -0.125000 0.750000
v 1.375000 -0.125000 -0.750000
v -1.625000 -1.000000 1.000000
v -1.625000 -1.000000 -1.000000
v -1.625000 0.000000 -1.000000
v -1.625000 0.000000 1.000000
v -1.625000 0.000000 0.750000
v -1.625000 -1.000000 0.750000
v -1.625000 -1.000000 -0.750000
v -1.625000 0.000000 -0.750000
v -1.375000 -1.000000 1.000000
v -1.375000 -1.000000 -1.000000
v -1.375000 -1.000000 0.750000
v -1.375000 -1.000000 -0.750000
v -1.375000 -0.125000 -1.000000
v -1.375000 -0.125000 1.000000
v -1.625000 -0.125000 -0.750000
v -1.625000 -0.125000 0.750000
v -1.625000 -0.125000 1.000000
v -1.625000 -0.125000 -1.000000
v -1.375000 0.000000 -1.000000
v -1.375000 0.000000 1.000000
v -1.375000 0.000000 0.750000
v -1.375000 0.000000 -0.750000
v -1.375000 -0.125000 0.750000
v -1.375000 -0.125000 -0.750000
vn -0.0000 -1.0000 -0.0000
vn -0.0000 -0.0000 -1.0000
vn 1.0000 -0.0000 -0.0000
vn -0.0000 -0.0000 1.0000
vn -0.0000 1.0000 -0.0000
vn -1.0000 -0.0000 -0.0000
vt 0.125000 0.875000
vt 0.125000 1.000000
vt 0.000000 1.000000
vt 0.000000 0.875000
vt 0.500000 0.500000
vt 0.500000 0.125000
vt 0.562500 0.125000
vt 0.562500 0.500000
vt 0.500000 0.000000
vt 0.562500 0.000000
vt 0.500000 0.875000
vt 0.562500 0.875000
vt 1.000000 0.875000
vt 1.000000 1.000000
vt 0.875000 1.000000
vt 0.875000 0.875000
vt 0.562500 1.000000
vt 0.500000 1.000000
vt 1.000000 0.125000
vt 1.000000 0.000000
s 0
usemtl MatChecker
f 13/1/1 8/2/1 1/3/1 11/4/1
f 6/5/2 23/6/2 15/7/2 19/8/2
f 18/7/3 7/6/3 4/9/3 21/10/3
f 15/7/2 23/6/2 3/9/2 22/10/2
f 10/11/3 7/6/3 18/7/3 17/12/3
f 12/13/1 2/14/1 9/15/1 14/16/1
f 22/17/3 3/18/3 10/11/3 17/12/3
f 24/11/4 5/5/4 20/8/4 16/12/4
f 21/17/4 4/18/4 24/11/4 16/12/4
f 8/19/3 18/7/3 21/10/3 1/20/3
f 12/19/2 15/7/2 22/10/2 2/20/2
f 2/14/3 22/17/3 17/12/3 9/13/3
f 1/14/4 21/17/4 16/12/4 11/13/4
f 17/12/1 18/7/1 33/7/1 34/12/1
f 10/11/5 26/11/5 25/6/5 7/6/5
f 10/11/5 3/18/5 23/18/5 26/11/5
f 4/9/5 7/6/5 25/6/5 24/9/5
f 26/11/5 32/11/5 30/6/5 25/6/5
f 31/7/1 33/7/1 16/7/1 20/7/1
f 34/12/1 33/7/1 31/7/1 29/12/1
f 23/18/5 27/18/5 32/11/5 26/11/5
f 34/12/1 29/12/1 19/12/1 15/12/1
f 25/6/5 30/6/5 28/9/5 24/9/5
f 13/1/6 11/4/6 16/4/6 33/1/6
f 8/2/2 13/1/2 33/1/2 18/2/2
f 12/13/6 14/16/6 34/16/6 15/13/6
f 14/16/4 9/15/4 17/15/4 34/16/4
f 45/1/1 43/4/1 35/3/1 40/2/1
f 6/5/2 19/8/2 47/7/2 53/6/2
f 50/7/6 51/10/6 38/9/6 39/6/6
f 47/7/2 52/10/2 37/9/2 53/6/2
f 42/11/6 49/12/6 50/7/6 39/6/6
f 44/13/1 46/16/1 41/15/1 36/14/1
f 52/17/6 49/12/6 42/11/6 37/18/6
f 54/11/4 48/12/4 20/8/4 5/5/4
f 51/17/4 48/12/4 54/11/4 38/18/4
f 40/19/6 35/20/6 51/10/6 50/7/6
f 44/19/2 36/20/2 52/10/2 47/7/2
f 36/14/6 41/13/6 49/12/6 52/17/6
f 35/14/4 43/13/4 48/12/4 51/17/4
f 49/12/1 58/12/1 57/7/1 50/7/1
f 42/11/5 39/6/5 55/6/5 56/11/5
f 42/11/5 56/11/5 53/18/5 37/18/5
f 38/9/5 54/9/5 55/6/5 39/6/5
f 56/11/5 55/6/5 30/6/5 32/11/5
f 31/7/1 20/7/1 48/7/1 57/7/1
f 58/12/1 29/12/1 31/7/1 57/7/1
f 53/18/5 56/11/5 32/11/5 27/18/5
f 58/12/1 47/12/1 19/12/1 29/12/1
f 55/6/5 54/9/5 28/9/5 30/6/5
f 45/1/3 57/1/3 48/4/3 43/4/3
f 40/2/2 50/2/2 57/1/2 45/1/2
f 44/13/3 47/13/3 58/16/3 46/16/3
f 46/16/4 58/16/4 49/15/4 41/15/4
