# Blender 4.4.0
# www.blender.org
mtllib CL3D_Gaveta.mtl
o Gaveta
v -0.433970 -0.216985 -0.471764
v 0.000000 -0.216985 -0.471764
v 0.433970 -0.216985 -0.471764
v 0.000000 0.216985 -0.413004
v 0.375210 0.216985 -0.413004
v -0.375210 0.216985 -0.413004
v -0.433970 -0.216985 0.471764
v 0.000000 -0.216985 0.471764
v 0.433970 -0.216985 0.471764
v 0.000000 0.216985 0.413004
v 0.375210 0.216985 0.413004
v -0.375210 0.216985 0.413004
v 0.000000 0.216985 -0.471764
v 0.433970 0.216985 -0.471764
v -0.433970 0.216985 -0.471764
v 0.000000 0.216985 0.471764
v 0.433970 0.216985 0.471764
v -0.433970 0.216985 0.471764
v 0.000000 -0.172198 0.413004
v 0.000000 -0.172198 -0.413004
v 0.375210 -0.172198 -0.413004
v -0.375210 -0.172198 -0.413004
v 0.375210 -0.172198 0.413004
v -0.375210 -0.172198 0.413004
v 0.000000 -0.000000 -0.471764
v -0.433970 -0.000000 -0.471764
v 0.433970 -0.000000 -0.471764
v 0.000000 -0.000000 0.471764
v -0.433970 -0.000000 0.471764
v 0.433970 -0.000000 0.471764
v -0.375210 0.022393 0.413004
v -0.375210 0.022393 -0.413004
v 0.375210 0.022393 0.413004
v 0.000000 0.022393 0.413004
v 0.000000 0.022393 -0.413004
v 0.375210 0.022393 -0.413004
v -0.433970 0.216985 0.000000
v 0.000000 -0.216985 0.000000
v -0.433970 -0.216985 0.000000
v 0.433970 0.216985 0.000000
v 0.433970 -0.216985 0.000000
v -0.375210 0.216985 0.000000
v 0.375210 0.216985 -0.000000
v 0.000000 -0.172198 -0.000000
v -0.375210 -0.172198 0.000000
v 0.375210 -0.172198 -0.000000
v 0.433970 -0.000000 0.000000
v -0.433970 -0.000000 0.000000
v 0.375210 0.022393 0.000000
v -0.375210 0.022393 -0.000000
vn -0.0000 -0.0000 -1.0000
vn -0.0000 -0.0000 1.0000
vn -0.0000 -1.0000 -0.0000
vn -1.0000 -0.0000 -0.0000
vn 1.0000 -0.0000 -0.0000
vn -0.0000 1.0000 -0.0000
vt 0.125000 0.429246
vt 0.125000 0.375000
vt 0.016508 0.375000
vt 0.016508 0.429246
vt 0.233492 0.429246
vt 0.233492 0.375000
vt 0.125000 0.429246
vt 0.016508 0.429246
vt 0.233492 0.429246
vt 0.125000 0.483492
vt 0.218803 0.483492
vt 0.218803 0.483492
vt 0.125000 0.483492
vt 0.031197 0.483492
vt 0.031197 0.483492
vt 0.233492 0.483492
vt 0.233492 0.483492
vt 0.218803 0.483492
vt 0.016508 0.483492
vt 0.125000 0.483492
vt 0.218803 0.483492
vt 0.218803 0.483492
vt 0.125000 0.483492
s 0
usemtl MatChecker
f 25/1/1 2/2/1 1/3/1 26/4/1
f 27/5/1 3/6/1 2/2/1 25/1/1
f 28/7/2 29/8/2 7/3/2 8/2/2
f 30/9/2 28/7/2 8/2/2 9/6/2
f 34/10/1 33/11/1 23/12/1 19/13/1
f 39/3/3 38/2/3 8/2/3 7/3/3
f 48/4/4 39/3/4 7/3/4 29/8/4
f 50/14/5 31/14/5 24/15/5 45/15/5
f 38/2/3 41/6/3 9/6/3 8/2/3
f 47/5/5 40/16/5 17/17/5 30/9/5
f 4/13/6 5/18/6 14/17/6 13/13/6
f 6/15/6 4/13/6 13/13/6 15/19/6
f 11/12/6 10/13/6 16/13/6 17/17/6
f 10/13/6 12/15/6 18/19/6 16/13/6
f 42/14/6 6/15/6 15/19/6 37/19/6
f 43/11/6 11/12/6 17/17/6 40/16/6
f 44/20/6 45/15/6 24/15/6 19/13/6
f 46/21/6 44/20/6 19/13/6 23/12/6
f 36/22/2 35/23/2 20/13/2 21/18/2
f 49/11/4 36/22/4 21/18/4 46/21/4
f 31/14/1 34/10/1 19/13/1 24/15/1
f 35/23/2 32/14/2 22/15/2 20/13/2
f 41/6/5 47/5/5 30/9/5 9/6/5
f 37/19/4 48/4/4 29/8/4 18/19/4
f 17/17/2 16/13/2 28/7/2 30/9/2
f 16/13/2 18/19/2 29/8/2 28/7/2
f 14/17/1 27/5/1 25/1/1 13/13/1
f 13/13/1 25/1/1 26/4/1 15/19/1
f 4/13/2 6/15/2 32/14/2 35/23/2
f 12/15/1 10/13/1 34/10/1 31/14/1
f 43/11/4 5/18/4 36/22/4 49/11/4
f 5/18/2 4/13/2 35/23/2 36/22/2
f 42/14/5 12/15/5 31/14/5 50/14/5
f 10/13/1 11/12/1 33/11/1 34/10/1
f 6/15/5 42/14/5 50/14/5 32/14/5
f 11/12/4 43/11/4 49/11/4 33/11/4
f 15/19/4 26/4/4 48/4/4 37/19/4
f 3/6/5 27/5/5 47/5/5 41/6/5
f 33/11/4 49/11/4 46/21/4 23/12/4
f 21/18/6 20/13/6 44/20/6 46/21/6
f 20/13/6 22/15/6 45/15/6 44/20/6
f 5/18/6 43/11/6 40/16/6 14/17/6
f 12/15/6 42/14/6 37/19/6 18/19/6
f 27/5/5 14/17/5 40/16/5 47/5/5
f 2/2/3 3/6/3 41/6/3 38/2/3
f 32/14/5 50/14/5 45/15/5 22/15/5
f 26/4/4 1/3/4 39/3/4 48/4/4
f 1/3/3 2/2/3 38/2/3 39/3/3
