# Blender 4.4.0
# www.blender.org
mtllib CL3D_Door.mtl
o Door
v -1.825956 -0.100000 0.817875
v -1.825956 0.100000 0.817875
v -1.825956 -0.100000 -0.817875
v -1.825956 0.100000 -0.817875
v 1.825956 -0.100000 0.817875
v 1.825956 0.100000 0.817875
v 1.825956 -0.100000 -0.817875
v 1.825956 0.100000 -0.817875
v -1.825956 -0.100000 0.000000
v -1.825956 0.100000 0.000000
v 1.825956 -0.100000 0.000000
v 1.825956 0.100000 0.000000
v -0.000000 -0.100000 -0.817875
v -0.000000 0.100000 -0.817875
v -0.000000 -0.100000 0.817875
v -0.000000 0.100000 0.817875
v -2.000000 -0.100000 -1.000000
v -2.000000 -0.100000 0.000000
v -2.000000 -0.100000 1.000000
v -2.000000 0.100000 1.000000
v -2.000000 0.100000 0.000000
v -2.000000 0.100000 -1.000000
v 2.000000 -0.100000 1.000000
v 2.000000 -0.100000 0.000000
v 2.000000 -0.100000 -1.000000
v 2.000000 0.100000 -1.000000
v 2.000000 0.100000 0.000000
v 2.000000 0.100000 1.000000
v 0.000000 -0.100000 -1.000000
v 0.000000 0.100000 -1.000000
v 0.000000 -0.100000 1.000000
v 0.000000 0.100000 1.000000
v -1.773930 0.037145 0.000000
v 0.000000 0.037145 0.000000
v 1.773930 0.037145 0.000000
v 1.773930 -0.037145 0.000000
v 0.000000 -0.037145 0.000000
v -1.773930 -0.037145 0.000000
v 0.000000 -0.037145 -0.773930
v 0.000000 0.037145 -0.773930
v 0.000000 0.037145 0.773930
v 0.000000 -0.037145 0.773930
v -1.773930 -0.037145 -0.773930
v -1.773930 -0.037145 0.773930
v -1.773930 0.037145 0.773930
v -1.773930 0.037145 -0.773930
v 1.773930 -0.037145 0.773930
v 1.773930 -0.037145 -0.773930
v 1.773930 0.037145 -0.773930
v 1.773930 0.037145 0.773930
vn -0.0000 -0.0000 1.0000
vn -1.0000 -0.0000 -0.0000
vn -0.0000 -0.0000 -1.0000
vn 1.0000 -0.0000 -0.0000
vn 0.7703 0.6376 -0.0000
vn -0.0000 -0.5730 0.8196
vn 0.7703 -0.6376 -0.0000
vn -0.0000 0.5730 -0.8196
vn -0.7703 0.6376 -0.0000
vn -0.0000 -1.0000 -0.0000
vn -0.0000 1.0000 -0.0000
vn -0.0000 0.5730 0.8196
vn -0.7703 -0.6376 -0.0000
vn -0.0000 -0.5730 -0.8196
vt 0.866679 1.000000
vt 0.866679 0.833333
vt 0.883346 0.833333
vt 0.883346 1.000000
vt 0.866679 0.666667
vt 0.866679 0.583333
vt 0.883346 0.583333
vt 0.883346 0.666667
vt 0.866679 0.500000
vt 0.866679 0.333333
vt 0.883346 0.333333
vt 0.883346 0.500000
vt 0.883346 0.083333
vt 0.866679 0.083333
vt 0.866679 -0.000000
vt 0.883346 -0.000000
vt 0.866679 0.166667
vt 0.883346 0.166667
vt 0.250000 0.056517
vt 0.443483 0.056517
vt 0.443482 0.056518
vt 0.443482 0.500000
vt 0.056518 0.056518
vt 0.250000 0.056518
vt 0.443482 0.943482
vt 0.443483 0.500000
vt 0.443483 0.943482
vt 0.250000 0.943482
vt 0.250000 0.000000
vt 0.500000 0.000000
vt 0.000000 0.000000
vt 0.250000 -0.000000
vt 0.500000 -0.000000
vt 0.056518 0.056518
vt 0.056518 0.943482
vt 0.250000 0.943483
vt 0.250000 1.000000
vt 0.000000 1.000000
vt 0.500000 1.000000
vt 0.056518 0.943482
vt 0.250000 1.000000
vt 0.000000 1.000000
vt 0.500000 1.000000
vt 0.500000 0.500000
vt 0.056518 0.500000
vt 0.000000 0.500000
vt 0.056518 0.500000
vt 0.000000 0.500000
vt 0.500000 0.500000
vt 0.250000 0.500000
vt 0.250000 0.500000
s 0
usemtl MatChecker
f 28/1/1 32/2/1 31/3/1 23/4/1
f 20/5/2 21/6/2 18/7/2 19/8/2
f 22/9/3 30/10/3 29/11/3 17/12/3
f 24/13/4 27/14/4 28/15/4 23/16/4
f 18/7/2 21/6/2 22/9/2 17/12/2
f 26/17/4 27/14/4 24/13/4 25/18/4
f 10/19/5 2/20/5 45/20/5 33/19/5
f 3/21/6 13/22/6 39/22/6 43/21/6
f 1/23/7 9/24/7 38/24/7 44/23/7
f 13/22/6 7/25/6 48/25/6 39/22/6
f 2/20/8 16/26/8 41/26/8 45/20/8
f 9/24/7 3/21/7 43/21/7 38/24/7
f 6/27/9 12/28/9 35/28/9 50/27/9
f 31/3/1 32/2/1 20/5/1 19/8/1
f 29/11/3 30/10/3 26/17/3 25/18/3
f 16/26/8 6/27/8 50/27/8 41/26/8
f 3/21/10 9/24/10 18/29/10 17/30/10
f 9/24/10 1/23/10 19/31/10 18/29/10
f 2/20/11 10/19/11 21/32/11 20/33/11
f 10/19/11 4/34/11 22/31/11 21/32/11
f 5/35/10 11/36/10 24/37/10 23/38/10
f 11/36/10 7/25/10 25/39/10 24/37/10
f 8/40/11 12/28/11 27/41/11 26/42/11
f 12/28/11 6/27/11 28/43/11 27/41/11
f 7/25/10 13/22/10 29/44/10 25/39/10
f 13/22/10 3/21/10 17/30/10 29/44/10
f 4/34/11 14/45/11 30/46/11 22/31/11
f 14/45/11 8/40/11 26/42/11 30/46/11
f 1/23/10 15/47/10 31/48/10 19/31/10
f 15/47/10 5/35/10 23/38/10 31/48/10
f 6/27/11 16/26/11 32/49/11 28/43/11
f 16/26/11 2/20/11 20/33/11 32/49/11
f 37/50/10 42/47/10 44/23/10 38/24/10
f 47/35/10 42/47/10 37/50/10 36/36/10
f 43/21/10 39/22/10 37/50/10 38/24/10
f 39/22/10 48/25/10 36/36/10 37/50/10
f 34/51/11 41/26/11 50/27/11 35/28/11
f 45/20/11 41/26/11 34/51/11 33/19/11
f 49/40/11 40/45/11 34/51/11 35/28/11
f 40/45/11 46/34/11 33/19/11 34/51/11
f 14/45/12 4/34/12 46/34/12 40/45/12
f 4/34/5 10/19/5 33/19/5 46/34/5
f 8/40/12 14/45/12 40/45/12 49/40/12
f 11/36/13 5/35/13 47/35/13 36/36/13
f 15/47/14 1/23/14 44/23/14 42/47/14
f 7/25/13 11/36/13 36/36/13 48/25/13
f 5/35/14 15/47/14 42/47/14 47/35/14
f 12/28/9 8/40/9 49/40/9 35/28/9
