# Blender 4.4.0
# www.blender.org
mtllib CL3D_Table3.mtl
o Table3
v 1.000000 -1.000000 -0.750000
v 1.000000 0.000000 -0.750000
v 0.000000 0.000000 -0.750000
v 1.000000 -1.000000 -0.500000
v 1.000000 0.000000 -0.500000
v 0.750000 -1.000000 -0.750000
v 0.750000 -1.000000 -0.500000
v 0.750000 -0.125000 -0.750000
v 1.000000 -0.125000 -0.500000
v 0.000000 -0.125000 -0.750000
v 1.000000 -0.125000 -0.750000
v 0.750000 0.000000 -0.750000
v 0.750000 0.000000 -0.500000
v 0.000000 -0.125000 -0.500000
v 0.000000 0.000000 -0.500000
v 0.750000 -0.125000 -0.500000
v 0.375000 0.000000 -0.750000
v 0.375000 -0.125000 -0.750000
v 0.375000 -0.125000 -0.500000
v 1.000000 0.000000 0.000000
v 1.000000 -0.125000 0.000000
v 0.750000 0.000000 0.000000
v 0.750000 -0.125000 0.000000
v 0.000000 0.000000 0.000000
v 0.000000 -0.125000 0.000000
v 0.375000 -0.125000 0.000000
v -1.000000 -1.000000 -0.750000
v -1.000000 0.000000 -0.750000
v -1.000000 -1.000000 -0.500000
v -1.000000 0.000000 -0.500000
v -0.750000 -1.000000 -0.750000
v -0.750000 -1.000000 -0.500000
v -0.750000 -0.125000 -0.750000
v -1.000000 -0.125000 -0.500000
v -1.000000 -0.125000 -0.750000
v -0.750000 0.000000 -0.750000
v -0.750000 0.000000 -0.500000
v -0.750000 -0.125000 -0.500000
v -0.375000 0.000000 -0.750000
v -0.375000 -0.125000 -0.750000
v -0.375000 -0.125000 -0.500000
v -1.000000 0.000000 0.000000
v -1.000000 -0.125000 0.000000
v -0.750000 0.000000 0.000000
v -0.750000 -0.125000 0.000000
v -0.375000 -0.125000 0.000000
v 1.000000 -1.000000 0.750000
v 1.000000 0.000000 0.750000
v 0.000000 0.000000 0.750000
v 1.000000 -1.000000 0.500000
v 1.000000 0.000000 0.500000
v 0.750000 -1.000000 0.750000
v 0.750000 -1.000000 0.500000
v 0.750000 -0.125000 0.750000
v 1.000000 -0.125000 0.500000
v 0.000000 -0.125000 0.750000
v 1.000000 -0.125000 0.750000
v 0.750000 0.000000 0.750000
v 0.750000 0.000000 0.500000
v 0.000000 -0.125000 0.500000
v 0.000000 0.000000 0.500000
v 0.750000 -0.125000 0.500000
v 0.375000 0.000000 0.750000
v 0.375000 -0.125000 0.750000
v 0.375000 -0.125000 0.500000
v -1.000000 -1.000000 0.750000
v -1.000000 0.000000 0.750000
v -1.000000 -1.000000 0.500000
v -1.000000 0.000000 0.500000
v -0.750000 -1.000000 0.750000
v -0.750000 -1.000000 0.500000
v -0.750000 -0.125000 0.750000
v -1.000000 -0.125000 0.500000
v -1.000000 -0.125000 0.750000
v -0.750000 0.000000 0.750000
v -0.750000 0.000000 0.500000
v -0.750000 -0.125000 0.500000
v -0.375000 0.000000 0.750000
v -0.375000 -0.125000 0.750000
v -0.375000 -0.125000 0.500000
vn -0.0000 -0.0000 -1.0000
vn -0.0000 -1.0000 -0.0000
vn 1.0000 -0.0000 -0.0000
vn -0.0000 1.0000 -0.0000
vn -1.0000 -0.0000 -0.0000
vn -0.0000 -0.0000 1.0000
vt 0.500000 0.312500
vt 0.500000 0.125000
vt 0.562500 0.125000
vt 0.562500 0.312500
vt 0.500000 0.000000
vt 0.562500 0.000000
vt 1.000000 0.875000
vt 1.000000 1.000000
vt 0.875000 1.000000
vt 0.875000 0.875000
vt 0.562500 1.000000
vt 0.500000 1.000000
vt 0.500000 0.875000
vt 0.562500 0.875000
vt 1.000000 0.125000
vt 1.000000 0.000000
vt 0.500000 0.500000
vt 0.562500 0.500000
s 0
usemtl MatChecker
f 17/1/1 12/2/1 8/3/1 18/4/1
f 8/3/1 12/2/1 2/5/1 11/6/1
f 6/7/2 1/8/2 4/9/2 7/10/2
f 11/11/3 2/12/3 5/13/3 9/14/3
f 6/15/1 8/3/1 11/6/1 1/16/1
f 1/8/3 11/11/3 9/14/3 4/7/3
f 5/13/4 2/12/4 12/12/4 13/13/4
f 12/12/4 3/12/4 15/13/4 13/13/4
f 19/14/2 14/14/2 10/14/2 18/14/2
f 6/7/5 7/10/5 16/10/5 8/7/5
f 7/10/6 4/9/6 9/9/6 16/10/6
f 16/14/2 19/14/2 18/14/2 8/14/2
f 3/17/1 17/1/1 18/4/1 10/18/1
f 16/14/2 23/18/2 26/18/2 19/14/2
f 19/14/2 26/18/2 25/18/2 14/14/2
f 13/13/4 15/13/4 24/17/4 22/17/4
f 5/13/4 13/13/4 22/17/4 20/17/4
f 9/14/2 21/18/2 23/18/2 16/14/2
f 5/13/3 20/17/3 21/18/3 9/14/3
f 39/1/1 40/4/1 33/3/1 36/2/1
f 33/3/1 35/6/1 28/5/1 36/2/1
f 31/7/2 32/10/2 29/9/2 27/8/2
f 35/11/5 34/14/5 30/13/5 28/12/5
f 31/15/1 27/16/1 35/6/1 33/3/1
f 27/8/5 29/7/5 34/14/5 35/11/5
f 30/13/4 37/13/4 36/12/4 28/12/4
f 36/12/4 37/13/4 15/13/4 3/12/4
f 41/14/2 40/14/2 10/14/2 14/14/2
f 31/7/3 33/7/3 38/10/3 32/10/3
f 32/10/6 38/10/6 34/9/6 29/9/6
f 38/14/2 33/14/2 40/14/2 41/14/2
f 3/17/1 10/18/1 40/4/1 39/1/1
f 38/14/2 41/14/2 46/18/2 45/18/2
f 41/14/2 14/14/2 25/18/2 46/18/2
f 37/13/4 44/17/4 24/17/4 15/13/4
f 30/13/4 42/17/4 44/17/4 37/13/4
f 34/14/2 38/14/2 45/18/2 43/18/2
f 30/13/5 34/14/5 43/18/5 42/17/5
f 63/1/6 64/4/6 54/3/6 58/2/6
f 54/3/6 57/6/6 48/5/6 58/2/6
f 52/7/2 53/10/2 50/9/2 47/8/2
f 57/11/3 55/14/3 51/13/3 48/12/3
f 52/15/6 47/16/6 57/6/6 54/3/6
f 47/8/3 50/7/3 55/14/3 57/11/3
f 51/13/4 59/13/4 58/12/4 48/12/4
f 58/12/4 59/13/4 61/13/4 49/12/4
f 65/14/2 64/14/2 56/14/2 60/14/2
f 52/7/5 54/7/5 62/10/5 53/10/5
f 53/10/1 62/10/1 55/9/1 50/9/1
f 62/14/2 54/14/2 64/14/2 65/14/2
f 49/17/6 56/18/6 64/4/6 63/1/6
f 62/14/2 65/14/2 26/18/2 23/18/2
f 65/14/2 60/14/2 25/18/2 26/18/2
f 59/13/4 22/17/4 24/17/4 61/13/4
f 51/13/4 20/17/4 22/17/4 59/13/4
f 55/14/2 62/14/2 23/18/2 21/18/2
f 51/13/3 55/14/3 21/18/3 20/17/3
f 78/1/6 75/2/6 72/3/6 79/4/6
f 72/3/6 75/2/6 67/5/6 74/6/6
f 70/7/2 66/8/2 68/9/2 71/10/2
f 74/11/5 67/12/5 69/13/5 73/14/5
f 70/15/6 72/3/6 74/6/6 66/16/6
f 66/8/5 74/11/5 73/14/5 68/7/5
f 69/13/4 67/12/4 75/12/4 76/13/4
f 75/12/4 49/12/4 61/13/4 76/13/4
f 80/14/2 60/14/2 56/14/2 79/14/2
f 70/7/3 71/10/3 77/10/3 72/7/3
f 71/10/1 68/9/1 73/9/1 77/10/1
f 77/14/2 80/14/2 79/14/2 72/14/2
f 49/17/6 78/1/6 79/4/6 56/18/6
f 77/14/2 45/18/2 46/18/2 80/14/2
f 80/14/2 46/18/2 25/18/2 60/14/2
f 76/13/4 61/13/4 24/17/4 44/17/4
f 69/13/4 76/13/4 44/17/4 42/17/4
f 73/14/2 43/18/2 45/18/2 77/14/2
f 69/13/5 42/17/5 43/18/5 73/14/5
